<svg width="160" height="33" viewBox="0 0 160 33" fill="none" xmlns="http://www.w3.org/2000/svg">
<g clip-path="url(#clip0)">
<path d="M65.2255 0.851807V32.2105H57.0527L48.3838 17.9751L46.5386 14.7767C46.0381 13.918 45.589 13.0291 45.1939 12.115C45.4028 14.4218 45.5072 17.0834 45.5072 20.1V32.2105H37.3345V0.851807H45.8206L53.8193 14.1201C55.3714 16.7492 56.5682 18.9392 57.4095 20.69C57.1716 17.6231 57.0527 14.9231 57.0527 12.5897V0.851807H65.2255Z" fill="white"/>
<path d="M96.4892 10.2649H88.4948C88.373 7.69791 86.6511 6.4144 83.3292 6.4144C80.428 6.4144 78.9773 7.33415 78.9773 9.17364C78.9638 9.56527 79.0689 9.95164 79.2783 10.2802C79.4878 10.6088 79.7914 10.8637 80.148 11.0102C80.8037 11.3325 82.9143 11.9314 86.4799 12.8068C89.8657 13.6526 92.3216 14.5398 93.8476 15.4684C96.4819 17.0477 97.7991 19.4136 97.7991 22.5662C97.7991 26.0115 96.4065 28.6732 93.6213 30.5511C91.1959 32.1836 88.0045 33.0013 84.0472 33.0043C79.2573 33.0043 75.6032 31.879 73.0849 29.6284C70.8713 27.6706 69.734 25.009 69.6731 21.6435H78.1157C78.2985 24.9764 80.3801 26.6414 84.3606 26.6385C87.6245 26.6385 89.2564 25.5724 89.2564 23.4401C89.276 22.9839 89.1656 22.5317 88.9386 22.1381C88.7115 21.7445 88.3776 21.4263 87.977 21.222C87.124 20.737 85.0047 20.0287 81.6189 19.0972C77.5195 17.9556 74.7633 16.8022 73.3504 15.637C71.7054 14.2618 70.8829 12.2759 70.8829 9.67935C70.8829 6.58297 72.2001 4.14461 74.8344 2.36426C77.1554 0.817546 80.1045 0.0441895 83.6817 0.0441895C87.9668 0.056019 91.2321 1.07632 93.4777 3.10508C95.4244 4.84403 96.4282 7.23064 96.4892 10.2649Z" fill="white"/>
<path d="M128.693 0.851807V7.59465H111.355V12.807H127.209V19.2438H111.355V25.4543H129.098V32.2105H102.956V0.851807H128.693Z" fill="white"/>
<path d="M160 0.851807V7.90074H150.387V32.2105H142.031V7.90074H132.457V0.851807H160Z" fill="white"/>
<path d="M16.2105 8.09586C18.4034 8.09586 20.5066 8.98386 22.0572 10.5645C23.6078 12.1452 24.479 14.289 24.479 16.5244H32.3123C32.3118 13.2785 31.3672 10.1056 29.5978 7.40693C27.8285 4.70823 25.3139 2.60487 22.372 1.36279C19.4301 0.120706 16.193 -0.204331 13.0699 0.42877C9.94676 1.06187 7.07792 2.62469 4.82605 4.91963L10.3659 10.5668C11.1322 9.78238 12.043 9.16025 13.0461 8.73619C14.0491 8.31213 15.1246 8.09451 16.2105 8.09586ZM16.2105 24.953C14.0175 24.953 11.9144 24.065 10.3638 22.4843C8.81311 20.9036 7.94197 18.7598 7.94197 16.5244H0.108643C0.10915 19.7703 1.05378 22.9432 2.82311 25.6419C4.59244 28.3406 7.10701 30.4439 10.0489 31.686C12.9908 32.9281 16.228 33.2532 19.3511 32.6201C22.4742 31.9869 25.343 30.4241 27.5949 28.1292L22.055 22.4821C21.2888 23.2664 20.3779 23.8886 19.3749 24.3126C18.3718 24.7367 17.2964 24.9543 16.2105 24.953Z" fill="white"/>
</g>
<defs>
<clipPath id="clip0">
<rect width="160" height="33" fill="white"/>
</clipPath>
</defs>
</svg>
