<svg width="30" height="26" viewBox="0 0 30 26" fill="none" xmlns="http://www.w3.org/2000/svg">
<path d="M27.3206 25.8386C27.9949 25.8386 28.5792 25.5945 29.0759 25.1126L20.5766 15.7952C20.3727 15.9553 20.175 16.111 19.9883 16.259C19.3523 16.7727 18.8361 17.1735 18.4397 17.4608C18.0433 17.7487 17.516 18.0421 16.8577 18.3417C16.199 18.6417 15.5853 18.7912 15.0161 18.7912H14.9994H14.9827C14.4134 18.7912 13.7997 18.6418 13.1411 18.3417C12.4824 18.0421 11.9551 17.7487 11.5591 17.4608C11.1628 17.1735 10.6468 16.7727 10.0104 16.259C9.83311 16.1165 9.63643 15.9601 9.42379 15.7927L0.922852 25.1126C1.41952 25.5945 2.00421 25.8386 2.6785 25.8386H27.3206Z" fill="black"/>
<path d="M1.69098 9.92809C1.05499 9.46327 0.491005 8.93093 0 8.3313V22.5071L7.49121 14.295C5.99254 13.148 4.06159 11.6941 1.69098 9.92809Z" fill="black"/>
<path d="M28.3252 9.92807C26.045 11.6199 24.107 13.0764 22.511 14.2982L29.9993 22.5073V8.3313C29.5192 8.91886 28.9612 9.45084 28.3252 9.92807Z" fill="black"/>
<path d="M27.321 0H2.67908C1.81939 0 1.15845 0.31823 0.69544 0.954033C0.232048 1.59013 0.000732422 2.38565 0.000732422 3.33968C0.000732422 4.1103 0.3077 4.94528 0.921364 5.84486C1.53503 6.74409 2.18801 7.4504 2.88 7.96417C3.25935 8.25798 4.40335 9.12979 6.31198 10.5793C7.34231 11.362 8.23832 12.0442 9.0083 12.6329C9.66461 13.1342 10.2306 13.5683 10.6979 13.9286C10.7516 13.9698 10.8359 14.036 10.9479 14.1237C11.0686 14.2187 11.2212 14.3393 11.4096 14.4884C11.7723 14.7759 12.0736 15.0083 12.3135 15.1859C12.5532 15.3635 12.8435 15.5619 13.1842 15.7822C13.5245 16.0022 13.8455 16.1677 14.1469 16.2777C14.4482 16.3877 14.7272 16.4429 14.9838 16.4429H15.0005H15.0172C15.2737 16.4429 15.5528 16.3877 15.8542 16.2777C16.1554 16.1677 16.4762 16.0026 16.8168 15.7822C17.1571 15.5619 17.4471 15.3631 17.6875 15.1859C17.9275 15.0083 18.2288 14.776 18.5915 14.4884C18.7795 14.3393 18.9321 14.2187 19.0528 14.124C19.1648 14.0359 19.2491 13.9702 19.3031 13.9286C19.6672 13.6509 20.2345 13.2185 20.9972 12.638C22.3851 11.5809 24.4291 10.025 27.1378 7.96417C27.9524 7.34042 28.633 6.58772 29.18 5.70712C29.726 4.82653 29.9998 3.90282 29.9998 2.93631C29.9998 2.1288 29.7343 1.43783 29.2047 0.862325C28.6744 0.287541 28.0465 0 27.321 0Z" fill="black"/>
</svg>
