<svg width="160" height="32" viewBox="0 0 160 32" fill="none" xmlns="http://www.w3.org/2000/svg">
<g clip-path="url(#clip0)">
<path d="M65.2255 0.825928V31.2343H57.0527L48.3838 17.4303L46.5386 14.3288C46.0381 13.4961 45.589 12.6342 45.1939 11.7478C45.4028 13.9847 45.5072 16.5657 45.5072 19.4908V31.2343H37.3345V0.825928H45.8206L53.8193 13.6922C55.3714 16.2416 56.5682 18.3652 57.4095 20.0629C57.1716 17.089 57.0527 14.4708 57.0527 12.2081V0.825928H65.2255Z" fill="black"/>
<path d="M96.4892 9.95404H88.4948C88.373 7.46482 86.6511 6.2202 83.3292 6.2202C80.428 6.2202 78.9773 7.11208 78.9773 8.89583C78.9638 9.27559 79.0689 9.65026 79.2783 9.9689C79.4878 10.2875 79.7914 10.5347 80.148 10.6767C80.8037 10.9893 82.9143 11.57 86.4799 12.4189C89.8657 13.2391 92.3215 14.0994 93.8476 14.9999C96.4819 16.5313 97.7991 18.8255 97.7991 21.8825C97.7991 25.2235 96.4065 27.8045 93.6213 29.6255C91.1959 31.2085 88.0045 32.0014 84.0472 32.0043C79.2573 32.0043 75.6032 30.9131 73.0849 28.7308C70.8713 26.8323 69.734 24.2513 69.6731 20.9878H78.1157C78.2985 24.2198 80.3801 25.8343 84.3606 25.8314C87.6245 25.8314 89.2564 24.7976 89.2564 22.7299C89.276 22.2876 89.1656 21.8491 88.9386 21.4674C88.7115 21.0858 88.3776 20.7772 87.977 20.5791C87.124 20.1088 85.0046 19.422 81.6189 18.5186C77.5195 17.4117 74.7633 16.2932 73.3504 15.1633C71.7054 13.8298 70.8829 11.9041 70.8829 9.38622C70.8829 6.38367 72.2001 4.01919 74.8344 2.29279C77.1554 0.792951 80.1045 0.0430298 83.6817 0.0430298C87.9668 0.0545009 91.2321 1.04388 93.4777 3.01117C95.4244 4.69742 96.4282 7.01171 96.4892 9.95404Z" fill="black"/>
<path d="M128.693 0.825928V7.36444H111.355V12.4189H127.209V18.6606H111.355V24.6829H129.098V31.2343H102.956V0.825928H128.693Z" fill="black"/>
<path d="M160 0.825928V7.66125H150.387V31.2343H142.031V7.66125H132.457V0.825928H160Z" fill="black"/>
<path d="M16.2107 7.85055C18.4037 7.85055 20.5068 8.71165 22.0574 10.2444C23.6081 11.7772 24.4792 13.856 24.4792 16.0237H32.3126C32.312 12.8762 31.3674 9.79943 29.5981 7.1825C27.8288 4.56558 25.3142 2.52596 22.3723 1.32151C19.4304 0.11707 16.1932 -0.198117 13.0701 0.4158C9.947 1.02972 7.07816 2.54517 4.82629 4.77057L10.3662 10.2466C11.1324 9.48597 12.0433 8.88269 13.0463 8.47148C14.0494 8.06027 15.1248 7.84924 16.2107 7.85055ZM16.2107 24.1968C14.0178 24.1968 11.9146 23.3357 10.364 21.803C8.81336 20.2702 7.94221 18.1913 7.94221 16.0237H0.108887C0.109395 19.1712 1.05403 22.248 2.82335 24.8649C4.59268 27.4818 7.10725 29.5214 10.0492 30.7259C12.9911 31.9303 16.2282 32.2455 19.3513 31.6316C22.4744 31.0177 25.3433 29.5022 27.5952 27.2768L22.0553 21.8008C21.289 22.5614 20.3782 23.1647 19.3751 23.5759C18.3721 23.9871 17.2966 24.1981 16.2107 24.1968Z" fill="black"/>
</g>
<defs>
<clipPath id="clip0">
<rect width="160" height="32" fill="white"/>
</clipPath>
</defs>
</svg>
