<svg width="30" height="30" viewBox="0 0 30 30" fill="none" xmlns="http://www.w3.org/2000/svg">
<g clip-path="url(#clip0)">
<path d="M22.8081 19.8455C21.828 18.8779 20.6045 18.8779 19.6306 19.8455C18.8877 20.5821 18.1448 21.3188 17.4144 22.0679C17.2147 22.2739 17.0461 22.3176 16.8027 22.1803C16.322 21.9181 15.8101 21.7058 15.3481 21.4187C13.1944 20.064 11.3902 18.3223 9.79208 16.3621C8.99926 15.3882 8.29383 14.3457 7.80065 13.172C7.70077 12.9348 7.7195 12.7787 7.91302 12.5852C8.65591 11.8673 9.38006 11.1307 10.1105 10.394C11.128 9.37021 11.128 8.17161 10.1042 7.14156C9.52365 6.55475 8.94307 5.98042 8.3625 5.3936C7.7632 4.7943 7.17014 4.18876 6.5646 3.5957C5.58449 2.64056 4.36092 2.64056 3.38705 3.60194C2.63793 4.33858 1.92002 5.09395 1.1584 5.81811C0.452977 6.48608 0.0971419 7.30387 0.0222293 8.25901C-0.0963823 9.81345 0.284423 11.2805 0.821297 12.7101C1.92002 15.6691 3.59306 18.2973 5.62195 20.707C8.3625 23.9657 11.6337 26.5439 15.4605 28.4043C17.1835 29.2408 18.9689 29.8838 20.9104 29.9899C22.2463 30.0648 23.4074 29.7277 24.3376 28.6852C24.9744 27.9735 25.6923 27.3243 26.3665 26.6438C27.3653 25.6325 27.3716 24.4089 26.379 23.4101C25.1929 22.2177 24.0005 21.0316 22.8081 19.8455Z" fill="black"/>
<path d="M21.6157 14.8701L23.9193 14.4768C23.5572 12.3605 22.5584 10.444 21.0414 8.92075C19.437 7.31638 17.4081 6.30506 15.1733 5.99292L14.8486 8.30897C16.5779 8.55243 18.151 9.33277 19.3933 10.5751C20.567 11.7487 21.3348 13.2345 21.6157 14.8701Z" fill="black"/>
<path d="M25.2178 4.85683C22.5584 2.19744 19.1936 0.518146 15.4792 0L15.1545 2.31605C18.3633 2.76552 21.2724 4.22008 23.5697 6.51115C25.7484 8.68986 27.178 11.4429 27.6962 14.4706L29.9997 14.0773C29.3942 10.5689 27.7399 7.38513 25.2178 4.85683Z" fill="black"/>
</g>
<defs>
<clipPath id="clip0">
<rect width="30" height="30" fill="white"/>
</clipPath>
</defs>
</svg>
