<svg width="38" height="22" viewBox="0 0 38 22" fill="none" xmlns="http://www.w3.org/2000/svg">
<path d="M37.7986 19.8711C37.7525 19.7719 37.7096 19.6897 37.6698 19.6238C37.0105 18.4363 35.7506 16.9789 33.8909 15.2509L33.8516 15.2114L33.8319 15.192L33.812 15.1721H33.792C32.948 14.3675 32.4135 13.8264 32.1897 13.5495C31.7801 13.0218 31.6884 12.4877 31.9122 11.9466C32.0703 11.5377 32.6644 10.6743 33.6929 9.35507C34.2339 8.65593 34.6623 8.09559 34.9788 7.67342C37.2608 4.63957 38.2502 2.70089 37.9466 1.85664L37.8288 1.65934C37.7496 1.54057 37.5451 1.43191 37.2158 1.33281C36.8856 1.23392 36.4637 1.21757 35.9491 1.28347L30.2512 1.32283C30.1589 1.29013 30.0271 1.29317 29.8554 1.33281C29.6839 1.37245 29.5981 1.39234 29.5981 1.39234L29.4989 1.44189L29.4202 1.50141C29.3542 1.54078 29.2816 1.61 29.2024 1.70896C29.1236 1.80757 29.0577 1.9233 29.0051 2.05517C28.3847 3.65117 27.6794 5.13504 26.8878 6.50673C26.3998 7.32465 25.9515 8.03349 25.5422 8.63368C25.1334 9.23366 24.7905 9.67571 24.5137 9.95907C24.2365 10.2427 23.9863 10.4699 23.7617 10.6416C23.5373 10.8133 23.3661 10.8859 23.2475 10.8593C23.1287 10.8328 23.0168 10.8064 22.9108 10.7801C22.7263 10.6613 22.5778 10.4998 22.4659 10.2954C22.3535 10.0909 22.2779 9.83364 22.2383 9.52367C22.1989 9.2135 22.1756 8.9467 22.169 8.72238C22.1628 8.49835 22.1657 8.18145 22.179 7.77259C22.1928 7.36352 22.1989 7.08675 22.1989 6.94164C22.1989 6.44034 22.2087 5.89628 22.2283 5.30933C22.2483 4.72238 22.2644 4.25732 22.2779 3.91471C22.2914 3.57175 22.2976 3.20891 22.2976 2.82639C22.2976 2.44386 22.2743 2.14387 22.2283 1.92614C22.1829 1.70868 22.1131 1.4976 22.0211 1.29297C21.9286 1.08854 21.7932 0.930401 21.6155 0.818138C21.4375 0.706014 21.2161 0.617036 20.9527 0.550926C20.2536 0.392719 19.3633 0.307136 18.2815 0.293831C15.8283 0.267498 14.252 0.425912 13.5529 0.768867C13.2759 0.913769 13.0253 1.11175 12.8012 1.36219C12.5637 1.65248 12.5306 1.8109 12.702 1.83695C13.4935 1.95552 14.0539 2.23916 14.3837 2.68758L14.5025 2.92521C14.5949 3.09665 14.6873 3.40017 14.7796 3.83536C14.8719 4.27055 14.9314 4.75197 14.9576 5.27932C15.0234 6.24235 15.0234 7.06672 14.9576 7.75249C14.8915 8.43854 14.8292 8.97262 14.7696 9.35514C14.7101 9.73767 14.6211 10.0476 14.5025 10.285C14.3837 10.5224 14.3046 10.6675 14.265 10.7202C14.2254 10.7728 14.1924 10.806 14.1662 10.8191C13.9948 10.8848 13.8165 10.9182 13.6319 10.9182C13.4471 10.9182 13.223 10.8258 12.9592 10.641C12.6956 10.4563 12.4219 10.2025 12.1383 9.87931C11.8546 9.55604 11.5348 9.10428 11.1785 8.52398C10.8225 7.94369 10.4532 7.25784 10.0706 6.46646L9.75415 5.89254C9.55631 5.52332 9.28604 4.98571 8.94309 4.28019C8.59993 3.57439 8.29661 2.89167 8.03293 2.23216C7.92753 1.95518 7.76919 1.7443 7.55817 1.59919L7.45915 1.53967C7.39331 1.487 7.28763 1.43108 7.14266 1.37148C6.99748 1.31195 6.846 1.26927 6.68758 1.243L1.26649 1.28236C0.71252 1.28236 0.336649 1.40786 0.138734 1.65851L0.0595268 1.77708C0.0199578 1.84312 0 1.94859 0 2.09377C0 2.23888 0.039569 2.41698 0.118776 2.62785C0.910157 4.4878 1.77077 6.28158 2.7006 8.00945C3.63044 9.73732 4.43846 11.1292 5.12416 12.1837C5.81 13.2391 6.50907 14.2351 7.22139 15.1713C7.9337 16.1079 8.4052 16.7081 8.63589 16.9717C8.86686 17.2359 9.04828 17.4334 9.18016 17.5653L9.67488 18.04C9.99143 18.3566 10.4563 18.7358 11.0696 19.1776C11.6831 19.6197 12.3623 20.0549 13.1075 20.4839C13.8529 20.9122 14.72 21.2618 15.7094 21.5321C16.6986 21.8027 17.6614 21.9113 18.598 21.8589H20.8733C21.3348 21.819 21.6844 21.6739 21.922 21.4235L22.0007 21.3243C22.0537 21.2456 22.1032 21.1233 22.149 20.9587C22.1953 20.7939 22.2183 20.6122 22.2183 20.4147C22.2047 19.8476 22.2479 19.3365 22.3466 18.8815C22.4452 18.4266 22.5576 18.0837 22.6833 17.8527C22.809 17.622 22.9507 17.4272 23.1085 17.2694C23.2667 17.1112 23.3793 17.0153 23.4455 16.9823C23.5112 16.9491 23.5636 16.9266 23.6032 16.9131C23.9197 16.8076 24.2923 16.9098 24.7214 17.22C25.1501 17.53 25.5522 17.9127 25.9284 18.3676C26.3043 18.8229 26.756 19.3337 27.2835 19.9007C27.8114 20.468 28.2729 20.8897 28.6684 21.1671L29.064 21.4045C29.3281 21.5629 29.6711 21.708 30.0933 21.8399C30.5147 21.9717 30.8839 22.0047 31.2009 21.9388L36.2657 21.8598C36.7666 21.8598 37.1564 21.7768 37.4329 21.6123C37.71 21.4474 37.8746 21.2658 37.9277 21.0682C37.9806 20.8704 37.9834 20.646 37.9377 20.3952C37.8908 20.1449 37.8446 19.97 37.7986 19.8711Z" fill="black"/>
</svg>
