<svg width="160" height="33" fill="none" xmlns="http://www.w3.org/2000/svg"><g clip-path="url(#clip0)" fill="#fff"><path d="M65.225.852V32.21h-8.172l-8.67-14.236-1.844-3.198a24.92 24.92 0 01-1.345-2.662c.209 2.307.313 4.968.313 7.985v12.11h-8.172V.853h8.486l7.998 13.268c1.552 2.63 2.75 4.82 3.59 6.57-.237-3.067-.356-5.767-.356-8.1V.852h8.172zM96.49 10.265h-7.995c-.122-2.567-1.844-3.85-5.166-3.85-2.901 0-4.352.92-4.352 2.759-.013.391.092.778.301 1.106.21.329.513.584.87.73.656.322 2.766.921 6.332 1.797 3.386.846 5.842 1.733 7.368 2.661 2.634 1.58 3.951 3.946 3.951 7.098 0 3.446-1.393 6.107-4.178 7.985-2.425 1.633-5.617 2.45-9.574 2.453-4.79 0-8.444-1.125-10.962-3.376-2.214-1.957-3.351-4.619-3.412-7.985h8.443c.183 3.333 2.264 4.998 6.245 4.995 3.263 0 4.895-1.066 4.895-3.198.02-.456-.09-.908-.317-1.302a2.338 2.338 0 00-.962-.916c-.853-.485-2.972-1.193-6.358-2.125-4.1-1.141-6.856-2.295-8.269-3.46-1.645-1.375-2.467-3.361-2.467-5.958 0-3.096 1.317-5.534 3.951-7.315 2.321-1.546 5.27-2.32 8.848-2.32 4.285.012 7.55 1.032 9.796 3.061 1.946 1.739 2.95 4.126 3.011 7.16zM128.693.852v6.743h-17.338v5.212h15.854v6.437h-15.854v6.21h17.743v6.757h-26.142V.85h25.737zM160 .852V7.9h-9.613v24.31h-8.356V7.9h-9.574V.85H160zM16.21 8.096a8.19 8.19 0 015.847 2.469 8.512 8.512 0 012.422 5.96h7.833a16.64 16.64 0 00-2.714-9.118 16.172 16.172 0 00-7.226-6.044A15.818 15.818 0 0013.07.429a16.01 16.01 0 00-8.244 4.49l5.54 5.648a8.226 8.226 0 012.68-1.83 8.098 8.098 0 013.165-.641zm0 16.857a8.19 8.19 0 01-5.846-2.469 8.512 8.512 0 01-2.422-5.96H.109c0 3.246.945 6.42 2.714 9.118a16.173 16.173 0 007.226 6.044 15.818 15.818 0 009.302.934 16.01 16.01 0 008.244-4.49l-5.54-5.648a8.226 8.226 0 01-2.68 1.83 8.099 8.099 0 01-3.165.641z"/></g><defs><clipPath id="clip0"><path fill="#fff" d="M0 0h160v33H0z"/></clipPath></defs></svg>