<svg width="30" height="26" fill="none" xmlns="http://www.w3.org/2000/svg"><path d="M27.32 25.839c.675 0 1.26-.244 1.756-.726l-8.5-9.318-.588.464c-.636.514-1.152.915-1.548 1.202-.397.288-.924.581-1.582.88-.659.3-1.273.45-1.842.45h-.033c-.57 0-1.183-.15-1.842-.45-.659-.299-1.186-.592-1.582-.88a39.82 39.82 0 01-1.549-1.202 74.586 74.586 0 00-.586-.466l-8.501 9.32c.497.482 1.081.726 1.756.726H27.32zM1.691 9.928A9.164 9.164 0 010 8.331v14.176l7.491-8.212c-1.498-1.147-3.43-2.6-5.8-4.367zM28.325 9.928a495.057 495.057 0 00-5.814 4.37l7.488 8.21V8.33a9.552 9.552 0 01-1.674 1.597z" fill="#000"/><path d="M27.321 0H2.679C1.82 0 1.16.318.695.954.232 1.59.001 2.386.001 3.34c0 .77.307 1.605.92 2.505.614.9 1.267 1.605 1.959 2.12.38.293 1.523 1.165 3.432 2.614a1116.044 1116.044 0 014.386 3.35c.054.04.138.107.25.195l.462.364c.362.288.664.52.903.698.24.178.53.376.871.596.34.22.662.386.963.496.301.11.58.165.837.165h.033c.257 0 .536-.055.837-.165.301-.11.622-.275.963-.496.34-.22.63-.419.87-.596.24-.178.542-.41.904-.698a117.234 117.234 0 01.712-.56l1.694-1.29 6.14-4.674a8.4 8.4 0 002.043-2.257c.546-.88.82-1.804.82-2.77 0-.808-.266-1.5-.795-2.075C28.675.288 28.047 0 27.32 0z" fill="#000"/></svg>