<svg width="160" height="32" fill="none" xmlns="http://www.w3.org/2000/svg"><g clip-path="url(#clip0)" fill="#000"><path d="M65.225.826v30.408h-8.172l-8.67-13.804-1.844-3.101a23.89 23.89 0 01-1.345-2.581c.209 2.237.313 4.818.313 7.743v11.743h-8.172V.826h8.486l7.998 12.866c1.552 2.55 2.75 4.673 3.59 6.37-.237-2.973-.356-5.591-.356-7.854V.826h8.172zM96.49 9.954h-7.995c-.122-2.49-1.844-3.734-5.166-3.734-2.901 0-4.352.892-4.352 2.676-.013.38.092.754.301 1.073.21.319.513.566.87.708.656.312 2.766.893 6.332 1.742 3.386.82 5.841 1.68 7.368 2.58 2.634 1.532 3.951 3.827 3.951 6.883 0 3.341-1.393 5.922-4.178 7.743-2.425 1.584-5.617 2.376-9.574 2.38-4.79 0-8.444-1.092-10.962-3.274-2.214-1.899-3.351-4.48-3.412-7.743h8.443c.183 3.232 2.264 4.846 6.245 4.843 3.263 0 4.895-1.033 4.895-3.101.02-.442-.09-.88-.317-1.263a2.31 2.31 0 00-.962-.888c-.853-.47-2.972-1.157-6.358-2.06-4.1-1.107-6.856-2.226-8.269-3.356-1.645-1.333-2.467-3.259-2.467-5.777 0-3.002 1.317-5.367 3.951-7.093 2.321-1.5 5.27-2.25 8.848-2.25 4.285.012 7.55 1 9.796 2.968 1.946 1.686 2.95 4 3.011 6.943zM128.693.826v6.538h-17.338v5.055h15.854v6.242h-15.854v6.022h17.743v6.551h-26.142V.826h25.737zM160 .826V7.66h-9.613v23.573h-8.356V7.661h-9.574V.826H160zM16.21 7.85c2.194 0 4.297.862 5.847 2.394a8.125 8.125 0 012.422 5.78h7.834c-.001-3.148-.946-6.225-2.715-8.841a16.063 16.063 0 00-7.226-5.861A16.277 16.277 0 0013.07.416 16.16 16.16 0 004.826 4.77l5.54 5.476a8.24 8.24 0 012.68-1.776 8.317 8.317 0 013.165-.62zm0 16.347a8.318 8.318 0 01-5.846-2.394 8.126 8.126 0 01-2.422-5.78H.11c0 3.148.945 6.225 2.714 8.842a16.064 16.064 0 007.226 5.86 16.277 16.277 0 009.302.907 16.161 16.161 0 008.244-4.355l-5.54-5.476a8.241 8.241 0 01-2.68 1.775 8.317 8.317 0 01-3.164.62z"/></g><defs><clipPath id="clip0"><path fill="#fff" d="M0 0h160v32H0z"/></clipPath></defs></svg>