<svg width="30" height="30" fill="none" xmlns="http://www.w3.org/2000/svg"><g clip-path="url(#clip0)" fill="#000"><path d="M22.808 19.846c-.98-.968-2.203-.968-3.177 0-.743.736-1.486 1.473-2.217 2.222-.2.206-.368.25-.611.112-.481-.262-.993-.474-1.455-.761-2.154-1.355-3.958-3.097-5.556-5.057-.793-.974-1.498-2.016-1.991-3.19-.1-.237-.082-.393.112-.587.743-.718 1.467-1.454 2.197-2.191 1.018-1.024 1.018-2.222-.006-3.252-.58-.587-1.16-1.162-1.741-1.748-.6-.6-1.193-1.205-1.798-1.798-.98-.955-2.204-.955-3.178.006-.75.737-1.467 1.492-2.229 2.216C.453 6.486.098 7.304.022 8.26c-.118 1.554.262 3.021.8 4.451 1.098 2.96 2.771 5.587 4.8 7.997 2.74 3.259 6.012 5.837 9.838 7.697 1.723.837 3.509 1.48 5.45 1.586 1.336.075 2.497-.262 3.428-1.305.636-.711 1.354-1.36 2.028-2.041 1-1.011 1.006-2.235.013-3.234-1.186-1.192-2.379-2.378-3.57-3.564zM21.616 14.87l2.303-.393a10.296 10.296 0 00-2.878-5.556 10.24 10.24 0 00-5.868-2.928l-.324 2.316a7.944 7.944 0 014.544 2.266 7.943 7.943 0 012.223 4.295zM25.218 4.857A16.986 16.986 0 0015.479 0l-.324 2.316a14.728 14.728 0 018.415 4.195 14.717 14.717 0 014.126 7.96L30 14.077a17.11 17.11 0 00-4.782-9.22z"/></g><defs><clipPath id="clip0"><path fill="#fff" d="M0 0h30v30H0z"/></clipPath></defs></svg>