<svg width="38" height="22" fill="none" xmlns="http://www.w3.org/2000/svg"><path d="M37.799 19.871a2.628 2.628 0 00-.13-.247c-.658-1.188-1.918-2.645-3.778-4.373l-.04-.04-.02-.019-.019-.02h-.02c-.844-.805-1.379-1.346-1.602-1.623-.41-.527-.502-1.061-.278-1.602.158-.41.752-1.273 1.78-2.592.542-.7.97-1.26 1.287-1.682 2.282-3.033 3.271-4.972 2.968-5.816l-.118-.198c-.08-.118-.284-.227-.613-.326-.33-.1-.752-.115-1.267-.05l-5.698.04c-.092-.033-.224-.03-.396.01l-.257.06-.1.049-.078.06a.879.879 0 00-.218.207 1.355 1.355 0 00-.197.346 32.311 32.311 0 01-2.117 4.452 42.134 42.134 0 01-1.346 2.127c-.409.6-.752 1.042-1.028 1.325a7.19 7.19 0 01-.752.683c-.225.171-.396.244-.515.217-.118-.026-.23-.053-.336-.079a1.316 1.316 0 01-.445-.485 2.172 2.172 0 01-.228-.771 8.476 8.476 0 01-.069-.802 16.77 16.77 0 01.01-.95c.014-.408.02-.685.02-.83 0-.502.01-1.046.03-1.633.02-.587.035-1.052.049-1.394.013-.343.02-.706.02-1.089 0-.382-.024-.682-.07-.9a3.073 3.073 0 00-.207-.633 1.066 1.066 0 00-.405-.475 2.286 2.286 0 00-.663-.267c-.7-.158-1.59-.244-2.671-.257-2.454-.027-4.03.132-4.73.475a2.665 2.665 0 00-.75.593c-.238.29-.271.449-.1.475.791.119 1.352.402 1.682.85l.118.238c.093.172.185.475.278.91.092.436.151.917.178 1.444.065.963.065 1.788 0 2.473-.066.687-.129 1.22-.188 1.603-.06.383-.149.693-.268.93a3.93 3.93 0 01-.237.435.343.343 0 01-.099.1c-.171.065-.35.098-.534.098-.185 0-.409-.092-.673-.277a4.746 4.746 0 01-.82-.762c-.284-.323-.604-.775-.96-1.355a23.664 23.664 0 01-1.108-2.058l-.317-.573c-.198-.37-.468-.907-.81-1.613a31.093 31.093 0 01-.911-2.048 1.304 1.304 0 00-.475-.633l-.099-.06a1.354 1.354 0 00-.316-.168 2.1 2.1 0 00-.455-.128l-5.422.04c-.553 0-.93.125-1.127.376l-.08.118C.02 1.843 0 1.95 0 2.094c0 .145.04.323.119.534A65.297 65.297 0 002.7 8.009c.93 1.728 1.737 3.12 2.423 4.175a49.264 49.264 0 002.097 2.987c.713.937 1.184 1.537 1.415 1.8.23.265.412.462.544.594l.495.475c.316.317.781.696 1.395 1.138a23.78 23.78 0 002.037 1.306c.746.428 1.613.778 2.602 1.048.99.27 1.952.38 2.889.327h2.275c.462-.04.811-.185 1.049-.436l.079-.099a1.31 1.31 0 00.148-.365 2.01 2.01 0 00.07-.544 6.514 6.514 0 01.128-1.534c.098-.454.21-.797.336-1.028a2.53 2.53 0 01.425-.584c.159-.158.271-.254.337-.287.066-.033.119-.055.158-.069.317-.105.69-.003 1.118.307.43.31.831.693 1.207 1.148.376.455.828.966 1.355 1.533.528.567.99.989 1.385 1.266l.396.237c.264.159.607.304 1.03.436.42.132.79.165 1.107.099l5.065-.08c.5 0 .89-.082 1.167-.247.277-.165.442-.346.495-.544.053-.198.055-.422.01-.673a2.483 2.483 0 00-.14-.524z" fill="#000"/></svg>